<svg width="35" height="35" viewBox="0 0 35 35" fill="none" xmlns="http://www.w3.org/2000/svg">
<path d="M27.553 16.1637H26.9224V17.4711C26.9224 17.4711 27.502 17.4708 27.553 17.4708C27.9235 17.4708 28.2366 17.1715 28.2366 16.8173C28.2366 16.463 27.9235 16.1637 27.553 16.1637Z" fill="white"/>
<path d="M20.4931 16.1637C19.4805 16.1637 18.6567 16.9875 18.6567 18C18.6567 19.0125 19.4805 19.8363 20.4931 19.8363C21.5056 19.8363 22.3293 19.0125 22.3293 18C22.3293 16.9875 21.5056 16.1637 20.4931 16.1637Z" fill="white"/>
<path d="M24.2132 3H11.7868L3 11.7868V24.2132L11.7868 33H24.2132L33 24.2132V11.7868L24.2132 3ZM11.1263 19.7406C10.9344 20.8482 9.88975 21.6521 8.6424 21.6521C7.65574 21.6521 6.72861 21.2535 6.09873 20.5584L7.40127 19.378C7.69418 19.7013 8.15818 19.8943 8.6424 19.8943C9.10166 19.8943 9.36246 19.6235 9.39416 19.4406C9.40816 19.3597 9.44537 19.145 8.97293 18.9674C8.66689 18.8524 8.44078 18.7971 8.22211 18.7435C7.8873 18.6615 7.54107 18.5768 7.14381 18.3185C6.43928 17.8607 6.20127 17.0844 6.21346 16.5105C6.2318 15.6434 6.82717 14.8431 7.69488 14.5194C9.1616 13.972 10.341 14.8481 11.0457 15.3715L9.99768 16.7827C8.96068 16.0126 8.64398 16.0414 8.30941 16.1662C8.06672 16.2568 7.97297 16.4484 7.97092 16.5479C7.96875 16.6492 8.01381 16.7876 8.1017 16.8446C8.2418 16.9357 8.34949 16.9649 8.64012 17.0361C8.88369 17.0958 9.18691 17.17 9.59121 17.322C10.7057 17.7407 11.3082 18.6901 11.1263 19.7406ZM16.5652 16.1637H15.0596V21.5941H13.3018V16.1637H11.8084V14.4059H16.5652V16.1637H16.5652ZM20.493 21.5941C18.5112 21.5941 16.8989 19.9818 16.8989 18C16.8989 16.0182 18.5112 14.4059 20.493 14.4059C22.4748 14.4059 24.0871 16.0182 24.0871 18C24.0871 19.9818 22.4748 21.5941 20.493 21.5941ZM27.5529 19.2287C27.4988 19.2287 26.9197 19.2289 26.9197 19.2289V21.5941H25.1619V14.4059H27.5529C28.8991 14.4059 29.9943 15.4877 29.9943 16.8173C29.9943 18.1469 28.8991 19.2287 27.5529 19.2287Z" fill="white"/>
</svg>
