<svg width="54" height="64" viewBox="0 0 54 64" fill="none" xmlns="http://www.w3.org/2000/svg">
<path d="M46.3873 19.0513L50.2193 15.2193L46.4487 11.4473L42.3493 15.5467C38.6045 12.8928 34.2344 11.2571 29.6673 10.8V5.33333H35.0007V0H19.0007V5.33333H24.334V10.8C19.7669 11.2571 15.3969 12.8928 11.652 15.5467L7.55267 11.4473L3.782 15.2193L7.614 19.0513C4.03706 22.8385 1.64771 27.5905 0.741018 32.7203C-0.165672 37.8502 0.450009 43.1332 2.51203 47.9171C4.57405 52.701 7.9921 56.7762 12.3441 59.6393C16.696 62.5025 21.7913 64.0283 27.0007 64.0283C32.21 64.0283 37.3053 62.5025 41.6573 59.6393C46.0092 56.7762 49.4273 52.701 51.4893 47.9171C53.5513 43.1332 54.167 37.8502 53.2603 32.7203C52.3536 27.5905 49.9643 22.8385 46.3873 19.0513V19.0513ZM27.0007 58.6667C22.7813 58.6667 18.6568 57.4155 15.1485 55.0713C11.6403 52.7272 8.90591 49.3954 7.29124 45.4972C5.67657 41.5991 5.2541 37.3097 6.07725 33.1714C6.9004 29.0331 8.9322 25.2319 11.9157 22.2484C14.8992 19.2649 18.7005 17.2331 22.8387 16.4099C26.977 15.5868 31.2664 16.0092 35.1646 17.6239C39.0627 19.2386 42.3946 21.9729 44.7387 25.4812C47.0828 28.9894 48.334 33.114 48.334 37.3333C48.3277 42.9893 46.078 48.4119 42.0786 52.4113C38.0792 56.4107 32.6567 58.6603 27.0007 58.6667V58.6667Z" fill="#1FDF83"/>
<path d="M27.0001 21.3335V37.3335H11.0001C11.0001 40.498 11.9385 43.5915 13.6966 46.2227C15.4547 48.8538 17.9536 50.9046 20.8772 52.1156C23.8008 53.3266 27.0179 53.6435 30.1216 53.0261C33.2253 52.4087 36.0762 50.8849 38.3138 48.6472C40.5515 46.4096 42.0753 43.5587 42.6927 40.455C43.3101 37.3513 42.9932 34.1342 41.7822 31.2106C40.5712 28.287 38.5204 25.7881 35.8892 24.03C33.2581 22.2719 30.1646 21.3335 27.0001 21.3335V21.3335Z" fill="#1FDF83"/>
</svg>
