<svg width="32" height="32" viewBox="0 0 32 32" fill="none" xmlns="http://www.w3.org/2000/svg">
    <path d="M23.9731 19.7626C23.9547 19.7856 23.9385 19.8098 23.9247 19.8351L23.8039 19.9962C23.6967 20.139 23.5403 20.347 23.3435 20.6078C22.9499 21.1293 22.3951 21.8614 21.7502 22.7036C20.4599 24.3889 18.8118 26.5115 17.3747 28.2692C16.6546 29.15 15.3456 29.1497 14.626 28.2685C13.1935 26.5146 11.5489 24.3949 10.2609 22.7116C9.61719 21.8703 9.06324 21.139 8.67025 20.618C8.47377 20.3575 8.31754 20.1496 8.21048 20.0069L8.08788 19.8433L8.05633 19.8011L8.04836 19.7905L8.04637 19.7878L8.04588 19.7872L8.04576 19.787L7.64516 20.0861L8.04573 19.7869C8.04225 19.7823 8.0387 19.7777 8.03506 19.7732L8.02659 19.7626C6.62489 18.0141 5.78679 15.7954 5.78679 13.3797C5.78679 7.73919 10.3593 3.16666 15.9998 3.16666C21.6403 3.16666 26.2129 7.73919 26.2129 13.3797C26.2129 15.7954 25.3748 18.0141 23.9731 19.7626Z"
          fill="#FAE44D" stroke="black" stroke-linejoin="round"/>
    <path d="M13 18H14.8452V14.9062H16.1918L17.8452 18H19.8821L18.0284 14.6079C19.0213 14.1818 19.571 13.3167 19.571 12.1236C19.571 10.3892 18.4247 9.27271 16.4432 9.27271H13V18ZM14.8452 13.4233V10.7812H16.0895C17.1548 10.7812 17.6705 11.2542 17.6705 12.1236C17.6705 12.9886 17.1548 13.4233 16.098 13.4233H14.8452Z"
          fill="black"/>
</svg>
