<svg width="924" height="262" viewBox="0 0 924 262" fill="none" xmlns="http://www.w3.org/2000/svg">
	<g id="gigover">
		<path d="M117.62 59.8203L116.064 75.3726C104.939 61.9737 89.0274 55.035 70.6039 55.035C30.0484 55.035 0.379395 89.6089 0.379395 131.72C0.379395 169.284 25.9808 208.165 70.245 208.165C88.7881 208.165 104.221 201.226 115.227 188.545V191.417C114.988 211.156 98.598 225.153 75.6285 225.153C58.8799 225.153 45.6006 220.966 39.3797 214.506L11.266 237.954C24.5452 252.908 47.5148 262 75.6285 262C120.132 262 151.835 232.81 152.074 191.417V59.8203H117.62ZM76.5856 171.318C52.5394 171.318 37.2263 151.34 37.2263 131.241C37.2263 110.066 54.3338 91.882 76.5856 91.882C96.8035 91.882 115.227 106.836 115.227 131.361C115.227 154.809 98.4784 171.318 76.5856 171.318Z"
			  fill="white"/>
		<path d="M196.764 42.4736C208.249 42.4736 217.58 33.1422 217.58 21.6574C217.58 10.1727 208.249 0.841309 196.764 0.841309C185.279 0.841309 175.948 10.1727 175.948 21.6574C175.948 33.1422 185.279 42.4736 196.764 42.4736ZM178.341 203.38H215.187V59.8203H178.341V203.38Z"
			  fill="white"/>
		<path d="M350.799 59.8203L349.243 75.3726C338.118 61.9737 322.206 55.035 303.783 55.035C263.227 55.035 233.558 89.6089 233.558 131.72C233.558 169.284 259.16 208.165 303.424 208.165C321.967 208.165 337.4 201.226 348.406 188.545V191.417C348.167 211.156 331.777 225.153 308.807 225.153C292.059 225.153 278.78 220.966 272.559 214.506L244.445 237.954C257.724 252.908 280.694 262 308.807 262C353.311 262 385.014 232.81 385.253 191.417V59.8203H350.799ZM309.765 171.318C285.718 171.318 270.405 151.34 270.405 131.241C270.405 110.066 287.513 91.882 309.765 91.882C329.982 91.882 348.406 106.836 348.406 131.361C348.406 154.809 331.657 171.318 309.765 171.318Z"
			  fill="white"/>
		<path d="M478.035 208.165C520.266 208.165 554.481 173.95 554.481 131.6C554.481 89.3697 520.266 55.035 478.035 55.035C435.566 55.035 401.351 89.3697 401.351 131.6C401.351 173.95 435.566 208.165 478.035 208.165ZM478.035 171.318C455.903 171.318 438.198 153.613 438.198 131.6C438.198 109.707 455.903 91.882 478.035 91.882C499.928 91.882 517.634 109.707 517.634 131.6C517.634 153.613 499.928 171.318 478.035 171.318Z"
			  fill="white"/>
		<path d="M647.503 59.8203L619.269 126.576L591.036 59.8203H550.002L618.671 208.165H620.107L689.015 59.8203H647.503Z"
			  fill="white"/>
		<path d="M826.182 125.858C826.182 90.9249 801.178 55.035 758.11 55.035C717.316 55.035 684.536 87.2163 684.536 131.6C684.536 175.625 716.837 208.165 758.23 208.165C775.218 208.165 798.068 202.662 816.013 183.401L791.249 158.757C778.687 170.002 766.963 172.275 759.067 172.275C741.96 172.275 728.202 161.748 722.699 146.195H822.712C824.866 140.573 826.182 133.753 826.182 125.858ZM757.991 90.9249C775.098 90.9249 785.865 101.812 789.694 117.483H722.101C727.125 101.333 741.123 90.9249 757.991 90.9249Z"
			  fill="white"/>
		<path d="M878.528 79.0812L876.614 59.8203H842.16V203.38H879.007V143.683C879.007 100.376 902.694 95.9929 918.844 95.9929C920.519 95.9929 922.194 95.9929 923.63 96.1126V59.8203C906.283 59.94 892.525 61.0167 878.528 79.0812Z"
			  fill="white"/>
	</g>
</svg>
