<svg width="192" height="44" viewBox="0 0 192 44" fill="none" xmlns="http://www.w3.org/2000/svg">
<path d="M7.85651 16.9946V13.6514H3.41851C1.53052 13.6514 0 15.1819 0 17.0699V42.57H7.85651V26.467C7.96795 21.6751 10.3639 20.2263 12.3698 20.2263C14.7101 20.2263 16.3259 21.8422 16.3259 25.7983V42.57H24.1824V26.467C24.2939 21.6751 26.6898 20.2263 28.6958 20.2263C31.036 20.2263 32.6519 21.8422 32.6519 25.7983V42.57H40.5084V23.1238C40.5084 17.5518 36.608 13.0385 31.5375 13.0385C26.7456 13.0385 24.2939 15.8245 23.0123 18.109C21.5079 15.1001 18.6105 13.0385 15.2115 13.0385C10.4196 13.0385 8.52515 15.8245 7.85651 16.9946Z" fill="white"/>
<path d="M48.075 9.58383C50.6938 9.58383 52.8669 7.46647 52.8669 4.79192C52.8669 2.17308 50.6938 0 48.075 0C45.4561 0 43.2831 2.17308 43.2831 4.79192C43.2831 7.46647 45.4561 9.58383 48.075 9.58383ZM52.0311 42.57V13.6514H47.5931C45.7051 13.6514 44.1746 15.1819 44.1746 17.0699V42.57H52.0311Z" fill="white"/>
<path d="M75.3773 41.0099L72.8142 34.4906C72.2013 35.0478 70.7526 35.5493 69.5824 35.5493C67.9108 35.5493 66.7407 34.1563 66.7407 31.2032V20.0592H73.3714V13.5957H66.7407V3.51036L61.2571 5.4829C59.9003 5.97093 58.9957 7.25777 58.9957 8.69962V13.5957H57.9566C56.0686 13.5957 54.5381 15.1262 54.5381 17.0142V20.0592H58.9957V32.4847C58.9957 40.3412 63.7318 42.9601 68.6352 43.0158C71.7555 43.0715 74.04 42.0685 75.3773 41.0099Z" fill="white"/>
<path d="M96.1939 41.0099L93.6308 34.4906C93.0179 35.0478 91.5692 35.5493 90.3991 35.5493C88.7275 35.5493 87.5573 34.1563 87.5573 31.2032V20.0592H94.188V13.5957H87.5573V3.51036L82.0737 5.4829C80.7169 5.97093 79.8123 7.25777 79.8123 8.69962V13.5957H78.7732C76.8852 13.5957 75.3547 15.1262 75.3547 17.0142V20.0592H79.8123V32.4847C79.8123 40.3412 84.5485 42.9601 89.4518 43.0158C92.5721 43.0715 94.8566 42.0685 96.1939 41.0099Z" fill="white"/>
<path d="M105.644 42.57H111.494L121.858 13.5399H116.009C114.977 13.5399 114.061 14.2012 113.737 15.1806L108.541 30.8688L102.802 13.5399H98.4767C96.8151 13.5399 95.6593 15.1918 96.2286 16.7528L105.644 42.57Z" fill="white"/>
<path d="M145.761 33.4877L139.241 29.0301L140.133 28.64C144.368 26.6898 145.148 24.2382 145.148 21.8979C145.148 15.713 139.91 13.0385 134.338 13.0385C128.265 13.0385 121.355 17.106 121.355 26.857V29.9216C121.355 38.8925 127.54 43.1829 133.502 43.1829C140.022 43.1829 143.978 39.1154 145.928 34.2678C146.039 33.9892 146.039 33.822 145.984 33.7106C145.928 33.5991 145.816 33.5434 145.761 33.4877ZM128.933 29.5316V26.7456C128.933 22.6223 131.218 19.3348 134.45 19.3348C136.455 19.3348 137.904 20.7278 137.904 22.7337C137.904 24.1825 137.291 25.5754 135.118 26.6341L128.933 29.5316ZM129.769 33.432L135.508 30.7574C137.013 31.5932 137.793 32.5404 137.737 33.5434C137.681 34.8807 136.567 36.4966 134.115 36.4966C132.277 36.4966 130.716 35.4379 129.769 33.432Z" fill="white"/>
<path d="M156.426 16.5488V13.6514H151.988C150.1 13.6514 148.57 15.1819 148.57 17.0699V42.57H156.426V25.854C156.426 21.0621 159.491 20.1149 160.772 20.1149C161.775 20.1149 163.168 20.5607 163.781 21.0621L166.567 13.93C164.84 13.3171 163.224 13.2056 162.388 13.2056C159.77 13.2056 157.819 14.4872 156.426 16.5488Z" fill="white"/>
<path d="M175.173 15.8802V0.780079L169.592 2.75899C168.228 3.24278 167.316 4.53339 167.316 5.98092V42.57H175.173V34.6578L180.132 32.3176C182.416 34.7135 183.252 39.0597 183.363 42.57H191.108C191.053 36.7194 189.604 31.7046 186.484 29.3644C189.047 27.9157 192 25.6869 192 21.6193C192 16.8274 188.267 12.8156 182.249 12.8156C179.352 12.8156 176.733 14.2643 175.173 15.8802ZM175.173 29.9216V26.2998C175.173 22.4551 177.457 19.6134 180.466 19.6134C182.918 19.6134 184.311 21.0621 184.311 22.7337C184.311 25.1854 182.36 26.5227 178.906 28.1943C177.791 28.7515 176.621 29.253 175.173 29.9216Z" fill="white"/>
</svg>
